<?xml version="1.0" encoding="UTF-8"?>
<svg width="1280px" height="149px" viewBox="0 0 1280 149" version="1.1" xmlns="http://www.w3.org/2000/svg" xmlns:xlink="http://www.w3.org/1999/xlink">
    <!-- Generator: Sketch 61 (89581) - https://sketch.com -->
    <title>Group</title>
    <desc>Created with Sketch.</desc>
    <defs>
        <polygon id="path-1" points="0 0.00132808652 1279.9998 0.00132808652 1279.9998 114 0 114"></polygon>
        <polygon id="path-3" points="0 0.207509249 1279.9998 0.207509249 1279.9998 92.664 0 92.664"></polygon>
        <polygon id="path-5" points="0 0.305983598 1279.9998 0.305983598 1279.9998 71.3735 0 71.3735"></polygon>
        <polygon id="path-7" points="0 0.883348552 1279.9998 0.883348552 1279.9998 52.6528 0 52.6528"></polygon>
        <polygon id="path-9" points="0 0.53094324 1279.9998 0.53094324 1279.9998 36.6744 0 36.6744"></polygon>
        <polygon id="path-11" points="0 0.298 1279.9998 0.298 1279.9998 37.346 0 37.346"></polygon>
        <polygon id="path-13" points="0 0.9778 1279.9998 0.9778 1279.9998 56.6208 0 56.6208"></polygon>
        <polygon id="path-15" points="0 0.657 1279.9998 0.657 1279.9998 77.455 0 77.455"></polygon>
        <polygon id="path-17" points="0 0.3363 1279.9998 0.3363 1279.9998 99.8953002 0 99.8953002"></polygon>
        <polygon id="path-19" points="0 0.01 1279.9998 0.01 1279.9998 123.509924 0 123.509924"></polygon>
    </defs>
    <g id="Page-1" stroke="none" stroke-width="1" fill="none" fill-rule="evenodd">
        <g id="Open-Sans-Copy" transform="translate(0.000000, -630.000000)">
            <g id="Group" transform="translate(0.000000, 630.000000)">
                <path d="M5.68434189e-13,0 L5.68434189e-13,23.2112 C1.146,23.1922 115.596,21.7902 282.92,79.1032 C287.329,80.1482 291.785,81.1982 296.268,82.2362 C296.337,82.2532 296.408,82.2692 296.478,82.2842 C298.818,82.6142 301.146,82.9542 303.503,83.2702 C306.187,83.6302 308.886,83.9892 311.593,84.3502 C316.78,84.6082 321.944,84.8722 327.082,85.1402 C332.407,85.0262 337.726,84.9282 343.033,84.8452 C348.502,84.3952 353.948,83.9702 359.369,83.5682 C364.807,82.8332 370.213,82.1332 375.592,81.4602 C381.491,80.3802 387.344,79.3422 393.137,78.3542 C399.026,77.0372 404.863,75.7762 410.65,74.5642 C473.226,58.3202 528.448,49.0422 569.647,43.7682 C640.937,34.6412 686.769,35.1932 687.229,35.2022 C687.671,35.1952 733.512,34.6422 804.795,43.7682 C850.297,49.5932 912.908,60.3062 983.635,79.8892 C1054.362,60.3062 1116.974,49.5932 1162.476,43.7682 C1232.637,34.7852 1278.151,35.1812 1280.0002,35.2022 L1280.0002,0 L5.68434189e-13,0 Z" id="Fill-1" fill="#FFFFFF"></path>
                <g id="Group-31" transform="translate(0.000000, 22.000000)">
                    <g id="Group-3" transform="translate(0.000000, 12.990000)">
                        <mask id="mask-2" fill="white">
                            <use xlink:href="#path-1"></use>
                        </mask>
                        <g id="Clip-2"></g>
                        <path d="M1279.9998,112.9922 C1205.2038,109.5412 1137.9908,97.2382 1082.2248,76.5282 C972.0768,35.6242 870.5338,16.9972 804.7458,8.5752 C733.4628,-0.5508 687.6218,0.0032 687.1808,0.0102 C686.7198,0.00132808652 640.8878,-0.5518 569.5988,8.5752 C503.8108,16.9972 402.2688,35.6242 292.1198,76.5282 C215.0948,105.1322 114.0928,115.9792 0.0348,107.9002 L-0.0002,108.3962 L-0.0002,108.9002 C114.1858,116.9842 215.3178,106.1162 292.4678,77.4662 C402.5188,36.5972 503.9728,17.9862 569.7038,9.5692 C640.9278,0.4492 686.7128,1.0042 687.1808,1.0102 C687.6358,1.0052 733.4248,0.4512 804.6418,9.5692 C870.3718,17.9862 971.8258,36.5972 1081.8768,77.4662 C1137.7548,98.2172 1205.0768,110.5472 1279.9998,114.0002 L1279.9998,112.9922 Z" id="Fill-1" fill="#6666FF" mask="url(#mask-2)"></path>
                    </g>
                    <g id="Group-6" transform="translate(0.000000, 23.990000)">
                        <mask id="mask-4" fill="white">
                            <use xlink:href="#path-3"></use>
                        </mask>
                        <g id="Clip-5"></g>
                        <path d="M1279.9998,91.665 C1211.7298,91.24 1132.6598,85.087 1060.3008,65.515 C907.0078,24.052 768.8238,7.659 679.8948,1.21 C676.3878,0.955 674.0698,0.787 672.9468,0.674 C657.5478,-0.889 516.6308,-1.06 346.9538,43.339 C331.9458,47.266 317.0758,51.494 301.3338,55.971 C296.2838,57.406 291.2078,58.85 286.1038,60.289 C184.0818,89.06 74.2268,88.835 0.0348,83.58 L-0.0002,84.076 L-0.0002,84.58 C74.2698,89.837 184.2308,90.058 286.3758,61.252 C291.4798,59.812 296.5568,58.368 301.6068,56.933 C317.3448,52.457 332.2098,48.23 347.2068,44.306 C438.2758,20.477 519.3318,10.057 571.2918,5.511 C628.2238,0.531 666.9578,1.073 672.8458,1.668 C673.9828,1.783 676.3068,1.952 679.8218,2.207 C840.8588,13.887 975.4718,43.605 1060.0388,66.479 C1132.5018,86.079 1211.6558,92.238 1279.9998,92.664 L1279.9998,91.665 Z" id="Fill-4" fill="#6666FF" mask="url(#mask-4)"></path>
                    </g>
                    <g id="Group-9" transform="translate(0.000000, 34.990000)">
                        <mask id="mask-6" fill="white">
                            <use xlink:href="#path-5"></use>
                        </mask>
                        <g id="Clip-8"></g>
                        <path d="M1279.9998,69.7305 C1203.7738,71.8755 1117.6328,69.0975 1038.3798,54.5045 C955.6488,39.2735 823.4618,17.7685 663.5328,1.8225 L658.6698,1.3355 C639.1898,-0.6415 505.3988,-3.3825 339.6958,31.2915 C331.6158,32.9815 323.3368,34.7985 315.3298,36.5565 C303.8428,39.0795 291.9648,41.6865 280.0898,44.0535 C167.2198,66.5485 56.1798,63.2385 0.0348,59.2595 L-0.0002,59.7555 L-0.0002,60.2595 C56.2048,64.2385 167.3238,67.5475 280.2848,45.0345 C292.1698,42.6665 304.0528,40.0565 315.5448,37.5335 C323.5488,35.7765 331.8258,33.9595 339.9008,32.2695 C505.4788,-2.3755 639.1178,0.3595 658.5678,2.3305 L663.4338,2.8175 C823.3288,18.7605 955.4868,40.2595 1038.1978,55.4885 C1102.3048,67.2925 1170.8888,71.3735 1235.1118,71.3735 C1250.3648,71.3735 1265.3578,71.1365 1279.9998,70.7245 L1279.9998,69.7305 Z" id="Fill-7" fill="#6666FF" mask="url(#mask-6)"></path>
                    </g>
                    <g id="Group-12" transform="translate(0.000000, 44.990000)">
                        <mask id="mask-8" fill="white">
                            <use xlink:href="#path-7"></use>
                        </mask>
                        <g id="Clip-11"></g>
                        <path d="M1279.9998,48.0518 C1200.3468,52.6268 1106.4388,54.1888 1016.4618,44.4998 C910.2128,33.0588 812.3408,21.9198 740.8788,13.7868 C693.8248,8.4328 659.8278,4.5638 644.3938,2.9978 C606.9008,-0.8062 476.3018,-1.7432 332.4408,20.2438 C327.9748,20.9268 323.5018,21.6248 319.0198,22.3238 C304.3498,24.6148 289.1798,26.9818 274.0728,28.8218 C149.7728,43.9608 41.0218,38.8418 0.0348,35.9388 L-0.0002,36.4348 L-0.0002,36.9398 C41.0418,39.8438 149.8458,44.9598 274.1938,29.8138 C289.3168,27.9718 304.4958,25.6038 319.1738,23.3128 C323.6538,22.6138 328.1268,21.9148 332.5918,21.2328 C476.3578,-0.7412 606.8398,0.1948 644.2918,3.9918 C659.7218,5.5578 693.7158,9.4268 740.7658,14.7808 C812.2288,22.9138 910.1028,34.0528 1016.3538,45.4938 C1064.5928,50.6888 1113.9458,52.6528 1161.6388,52.6528 C1202.9538,52.6528 1243.0098,51.1768 1279.9998,49.0528 L1279.9998,48.0518 Z" id="Fill-10" fill="#6666FF" mask="url(#mask-8)"></path>
                    </g>
                    <g id="Group-15" transform="translate(0.000000, 54.990000)">
                        <mask id="mask-10" fill="white">
                            <use xlink:href="#path-9"></use>
                        </mask>
                        <g id="Clip-14"></g>
                        <path d="M1279.9998,25.7754 C1204.1928,31.9464 1099.5018,38.3774 994.5448,34.4974 C857.6758,29.4404 729.7788,15.4774 661.0688,7.9754 C648.7658,6.6324 638.1398,5.4724 630.1168,4.6594 C583.2308,-0.0976 458.9868,-3.0696 325.1878,9.1994 C307.5068,10.8204 287.4658,12.6584 268.0568,13.5914 C156.3978,18.9614 56.3938,16.6104 0.0348,12.6184 L-0.0002,13.1144 L-0.0002,13.6194 C56.3948,17.6114 156.4278,19.9624 268.1048,14.5904 C287.5348,13.6564 307.5878,11.8174 325.2798,10.1954 C459.0098,-2.0676 583.1688,0.9014 630.0158,5.6544 C638.0348,6.4664 648.6588,7.6274 660.9608,8.9694 C729.6838,16.4724 857.6038,30.4384 994.5078,35.4974 C1016.6668,36.3154 1038.7988,36.6744 1060.6638,36.6744 C1142.3858,36.6734 1220.1778,31.6474 1279.9998,26.7794 L1279.9998,25.7754 Z" id="Fill-13" fill="#6666FF" mask="url(#mask-10)"></path>
                    </g>
                    <g id="Group-18" transform="translate(0.000000, 53.990000)">
                        <mask id="mask-12" fill="white">
                            <use xlink:href="#path-11"></use>
                        </mask>
                        <g id="Clip-17"></g>
                        <path d="M1279.9998,13.832 C1205.2448,21.205 1092.7408,31.654 972.6288,35.497 C835.1738,39.895 701.3798,26.122 629.5018,18.721 C624.6158,18.218 620.0558,17.749 615.8408,17.321 C556.5648,11.308 438.0608,6.188 317.9388,9.155 C296.8568,9.676 278.5718,9.744 262.0388,9.364 C130.3678,6.336 42.2178,3.286 0.0348,0.298 L-0.0002,0.794 L-0.0002,1.299 C42.2118,4.286 130.3658,7.337 262.0158,10.364 C278.5668,10.745 296.8678,10.678 317.9648,10.155 C438.0398,7.191 556.4938,12.307 615.7388,18.315 C619.9538,18.743 624.5148,19.213 629.3988,19.716 C691.7418,26.135 800.6278,37.347 918.1288,37.346 C936.1438,37.346 954.3798,37.082 972.6608,36.497 C1092.1418,32.674 1208.0148,21.925 1279.9998,14.836 L1279.9998,13.832 Z" id="Fill-16" fill="#6666FF" mask="url(#mask-12)"></path>
                    </g>
                    <g id="Group-21" transform="translate(0.000000, 39.990000)">
                        <mask id="mask-14" fill="white">
                            <use xlink:href="#path-13"></use>
                        </mask>
                        <g id="Clip-20"></g>
                        <path d="M1279.9998,14.3018 C1258.6128,16.5758 1231.7878,19.4908 1200.6238,22.8768 C1130.9558,30.4468 1044.2518,39.8658 950.7138,49.4998 C823.9968,62.5488 690.7608,52.0298 601.5628,42.9828 C544.4448,37.1888 433.9958,28.2468 310.6938,22.1148 C293.6138,21.2648 275.7298,19.9648 256.0198,18.1398 C164.3638,9.6548 86.6368,5.6338 40.1948,3.2328 C22.9308,2.3388 9.2928,1.6338 0.0348,0.9778 L-0.0002,1.4738 L-0.0002,1.9788 C9.2678,2.6338 22.8948,3.3378 40.1438,4.2308 C86.5768,6.6318 164.2928,10.6528 255.9278,19.1358 C275.6518,20.9618 293.5508,22.2638 310.6448,23.1138 C433.9268,29.2448 544.3558,38.1858 601.4618,43.9778 C660.6038,49.9768 739.0858,56.6218 822.2168,56.6208 C864.5238,56.6208 908.0478,54.8998 950.8158,50.4938 C1044.3568,40.8618 1131.0628,31.4408 1200.7318,23.8708 C1231.8448,20.4908 1258.6328,17.5798 1279.9998,15.3078 L1279.9998,14.3018 Z" id="Fill-19" fill="#6666FF" mask="url(#mask-14)"></path>
                    </g>
                    <g id="Group-24" transform="translate(0.000000, 26.990000)">
                        <mask id="mask-16" fill="white">
                            <use xlink:href="#path-15"></use>
                        </mask>
                        <g id="Clip-23"></g>
                        <path d="M1279.9998,13.334 C1218.0118,19.537 1083.1228,34.716 928.7948,62.505 C811.9918,83.537 678.6108,76.908 587.2868,67.645 C501.3268,58.925 395.2218,46.377 303.4538,34.077 C286.0768,31.747 269.1308,29.009 252.7418,26.36 L250.0008,25.918 C138.0298,7.834 51.9358,3.398 15.1708,1.504 C8.6558,1.169 3.5108,0.903 0.0348,0.657 L-0.0002,1.153 L-0.0002,1.658 C3.4838,1.903 8.6198,2.168 15.1198,2.503 C51.8668,4.396 137.9248,8.829 249.8408,26.905 L252.5818,27.348 C268.9778,29.997 285.9318,32.736 303.3208,35.068 C395.0988,47.369 501.2158,59.919 587.1858,68.639 C649.6888,74.98 704.5098,77.455 752.0168,77.455 C830.3538,77.454 888.8008,70.723 928.9728,63.489 C1083.1878,35.721 1217.9828,20.547 1279.9998,14.339 L1279.9998,13.334 Z" id="Fill-22" fill="#6666FF" mask="url(#mask-16)"></path>
                    </g>
                    <g id="Group-27" transform="translate(0.000000, 13.990000)">
                        <mask id="mask-18" fill="white">
                            <use xlink:href="#path-17"></use>
                        </mask>
                        <g id="Clip-26"></g>
                        <path d="M1279.9998,12.3203 C1157.4028,21.4463 1025.3228,43.7933 906.8718,75.5143 C787.4978,107.4813 646.4578,99.7553 573.0108,92.3063 C485.7438,83.4543 384.8568,66.5923 296.2188,46.0443 C287.4488,44.0113 278.7698,41.9363 270.3738,39.9303 C261.2458,37.7493 252.6238,35.6883 243.9788,33.6973 C161.8858,14.7833 81.9278,3.6563 6.3258,0.6263 C3.3748,0.5073 1.2428,0.4223 0.0348,0.3363 L-0.0002,0.8323 L-0.0002,1.3363 C1.2288,1.4223 3.3528,1.5073 6.2858,1.6253 C81.8248,4.6533 161.7218,15.7713 243.7548,34.6723 C252.3958,36.6633 261.0158,38.7223 270.1418,40.9033 C278.5378,42.9103 287.2208,44.9843 295.9918,47.0183 C384.6708,67.5763 485.6038,84.4453 572.9088,93.3003 C605.1578,96.5723 650.4048,99.8963 701.1548,99.8953002 C766.0978,99.8943 840.0348,94.4483 907.1308,76.4803 C1025.5008,44.7803 1157.4848,22.4473 1279.9998,13.3223 L1279.9998,12.3203 Z" id="Fill-25" fill="#6666FF" mask="url(#mask-18)"></path>
                    </g>
                    <g id="Group-30" transform="translate(0.000000, 0.990000)">
                        <mask id="mask-20" fill="white">
                            <use xlink:href="#path-19"></use>
                        </mask>
                        <g id="Clip-29"></g>
                        <path d="M1279.9998,12.0098074 C1279.3768,11.9988 1233.5758,11.4658 1162.4268,20.5748 C1096.6388,28.9968 995.0958,47.6238 884.9468,88.5288 C806.8518,117.5298 704.3068,128.2678 588.4138,119.5878 C487.6038,112.0358 381.2648,90.1698 288.9878,58.0178 C118.5228,-1.3802 1.4298,-0.0022 -0.0002,0.0148 L-0.0002,0.5248 L-0.0002,1.0148 C1.1588,0.9988 118.1918,-0.4362 288.6588,58.9618 C381.0158,91.1418 487.4438,113.0268 588.3398,120.5848 C704.3818,129.2748 807.0658,118.5158 885.2948,89.4658 C995.3458,48.5978 1096.8008,29.9868 1162.5308,21.5698 C1233.6198,12.4668 1279.3628,13.0018 1279.9998,13.0098074 L1279.9998,12.0098074 Z" id="Fill-28" fill="#6666FF" mask="url(#mask-20)"></path>
                    </g>
                </g>
            </g>
        </g>
    </g>
</svg>