<?xml version="1.0" encoding="UTF-8"?>
<svg width="250px" height="99px" viewBox="0 0 250 99" version="1.1" xmlns="http://www.w3.org/2000/svg" xmlns:xlink="http://www.w3.org/1999/xlink">
    <!-- Generator: Sketch 61 (89581) - https://sketch.com -->
    <title>Group</title>
    <desc>Created with Sketch.</desc>
    <defs>
        <polygon id="path-1" points="0.505785047 0.506859813 9.44182243 0.506859813 9.44182243 6.55457009 0.505785047 6.55457009"></polygon>
        <polygon id="path-3" points="0.505785047 0.296205607 9.44182243 0.296205607 9.44182243 6.34391589 0.505785047 6.34391589"></polygon>
        <polygon id="path-5" points="0.000537383178 0.409485981 17.3064252 0.409485981 17.3064252 15.0464126 0.000537383178 15.0464126"></polygon>
        <polygon id="path-7" points="0.907425234 0.409485981 18.2133131 0.409485981 18.2133131 15.0464126 0.907425234 15.0464126"></polygon>
        <polygon id="path-9" points="0.6999375 1.093176 36.25 1.093176 36.25 45.626616 0.6999375 45.626616"></polygon>
        <polygon id="path-11" points="0.7004375 0.305046 36.25 0.305046 36.25 51.66 0.7004375 51.66"></polygon>
    </defs>
    <g id="Page-1" stroke="none" stroke-width="1" fill="none" fill-rule="evenodd">
        <g id="Open-Sans" transform="translate(-516.000000, -161.000000)">
            <g id="Group" transform="translate(516.000000, 160.000000)">
                <g id="Group-23" transform="translate(67.000000, 0.000000)">
                    <path d="M92.5907991,1.17128037 L89.5911262,1.17128037 C89.4084159,1.17128037 89.2600981,1.31852336 89.2600981,1.50123364 L89.2600981,15.2775888 C89.2600981,15.4592243 89.4084159,15.6075421 89.5911262,15.6075421 L92.5907991,15.6075421 C92.7735093,15.6075421 92.9229019,15.4592243 92.9229019,15.2775888 L92.9229019,1.50123364 C92.9229019,1.31852336 92.7735093,1.17128037 92.5907991,1.17128037" id="Fill-1" fill="#4D5969"></path>
                    <path d="M35.1863458,1.17181776 L32.6359252,1.17181776 C32.3285421,1.17181776 32.0791963,1.42116355 32.0791963,1.72854673 L32.0791963,11.0897617 C32.0791963,12.0763972 30.7013458,12.3934533 29.0107383,12.3934533 L27.1148505,12.3934533 L25.2200374,12.3934533 C23.5294299,12.3934533 22.1515794,12.0763972 22.1515794,11.0897617 L22.1515794,1.72854673 C22.1515794,1.42116355 21.9022336,1.17181776 21.5948505,1.17181776 L19.0444299,1.17181776 C18.7370467,1.17181776 18.4887757,1.42116355 18.4887757,1.72854673 C18.4887757,1.72854673 18.4898505,9.65279907 18.4898505,11.3057897 C18.4898505,12.9587804 19.2088692,14.0023785 20.5770467,14.8245748 C21.9473738,15.6446215 25.1351308,15.6080794 26.0809252,15.6080794 L27.1148505,15.6080794 L28.1487757,15.6080794 C29.0945701,15.6080794 32.2844766,15.6446215 33.6526542,14.8245748 C35.0219065,14.0023785 35.7409252,12.9587804 35.7409252,11.3057897 C35.7409252,9.65279907 35.7430748,1.72854673 35.7430748,1.72854673 C35.7430748,1.42116355 35.4926542,1.17181776 35.1863458,1.17181776" id="Fill-3" fill="#4D5969"></path>
                    <g id="Group-7" transform="translate(105.327103, 0.665280)">
                        <mask id="mask-2" fill="white">
                            <use xlink:href="#path-1"></use>
                        </mask>
                        <g id="Clip-6"></g>
                        <path d="M4.68770093,0.603588785 C4.74896262,0.543401869 4.83171963,0.506859813 4.92414953,0.506859813 L9.10391589,0.506859813 C9.29092523,0.506859813 9.44246729,0.658401869 9.44246729,0.844336449 C9.44246729,0.953962617 9.38980374,1.05176636 9.30919626,1.11302804 L3.17228037,6.45569159 C3.11101869,6.5158785 3.02611215,6.55457009 2.93368224,6.55457009 C2.83372897,6.55457009 2.74452336,6.51157944 2.68326168,6.44386916 L0.592841121,4.62428972 C0.539102804,4.5641028 0.505785047,4.48457009 0.505785047,4.39751402 C0.505785047,4.29433645 0.552,4.20083178 0.626158879,4.13849533 L4.68770093,0.603588785 Z" id="Fill-5" fill="#4D5969" mask="url(#mask-2)"></path>
                    </g>
                    <g id="Group-10" transform="translate(105.327103, 9.263411)">
                        <mask id="mask-4" fill="white">
                            <use xlink:href="#path-3"></use>
                        </mask>
                        <g id="Clip-9"></g>
                        <path d="M4.68770093,6.24718692 C4.74896262,6.30737383 4.83171963,6.34391589 4.92414953,6.34391589 L9.10391589,6.34391589 C9.29092523,6.34391589 9.44246729,6.19237383 9.44246729,6.00643925 C9.44246729,5.89681308 9.38980374,5.79900935 9.30919626,5.73774766 L3.17228037,0.395084112 C3.11101869,0.334897196 3.02611215,0.296205607 2.93368224,0.296205607 C2.83372897,0.296205607 2.74452336,0.339196262 2.68326168,0.406906542 L0.592841121,2.22648598 C0.539102804,2.28559813 0.505785047,2.36620561 0.505785047,2.45326168 C0.505785047,2.55643925 0.552,2.64994393 0.626158879,2.71228037 L4.68770093,6.24718692 Z" id="Fill-8" fill="#4D5969" mask="url(#mask-4)"></path>
                    </g>
                    <path d="M98.8557196,15.5184439 C98.7944579,15.573257 98.7149252,15.6076495 98.6267944,15.6076495 L94.4416542,15.6076495 C94.2557196,15.6076495 94.1041776,15.4561075 94.1041776,15.2701729 C94.1041776,15.1766682 94.1417944,15.0928364 94.2030561,15.0315748 L101.537262,8.64746262 C101.610346,8.58620093 101.657636,8.49269626 101.657636,8.38951869 C101.657636,8.29064019 101.61572,8.20358411 101.549084,8.14124766 L94.2234766,1.76788318 C94.1503925,1.70554673 94.1041776,1.61311682 94.1041776,1.50993925 C94.1041776,1.32292991 94.2557196,1.17138785 94.4416542,1.17138785 L98.6267944,1.17138785 C98.7149252,1.17138785 98.7955327,1.20578037 98.8557196,1.26059346 L106.753103,8.13479907 C106.824037,8.19606075 106.869178,8.28741589 106.869178,8.38951869 C106.869178,8.4916215 106.822963,8.58297664 106.752028,8.64531308 L98.8557196,15.5184439 Z" id="Fill-11" fill="#4D5969"></path>
                    <path d="M46.6697944,4.72252336 C46.6697944,4.53658879 46.8213364,4.3861215 47.007271,4.3861215 L52.2005421,4.3861215 C52.5068505,4.3861215 52.7561963,4.1367757 52.7561963,3.82939252 L52.7561963,1.7282243 C52.7561963,1.42084112 52.5068505,1.17149533 52.2005421,1.17149533 L37.4783925,1.17149533 C37.1710093,1.17149533 36.9227383,1.42084112 36.9227383,1.7282243 L36.9227383,3.82939252 C36.9227383,4.1367757 37.1710093,4.3861215 37.4783925,4.3861215 L42.6705888,4.3861215 C42.8565234,4.3861215 43.0080654,4.53658879 43.0080654,4.72252336 L43.0080654,15.051028 C43.0080654,15.3584112 43.2574112,15.607757 43.5637196,15.607757 L46.1055421,15.607757 C46.4129252,15.607757 46.6611963,15.3584112 46.6611963,15.051028 L46.6697944,4.72252336 Z" id="Fill-13" fill="#4D5969"></path>
                    <g id="Group-17" transform="translate(0.000000, 0.665280)">
                        <mask id="mask-6" fill="white">
                            <use xlink:href="#path-5"></use>
                        </mask>
                        <g id="Clip-16"></g>
                        <path d="M13.2459579,9.46364019 C13.2921729,9.50233178 13.346986,9.53242523 13.411472,9.53242523 C13.5404439,9.53242523 13.6446963,9.42924766 13.6446963,9.3002757 L13.6446963,1.06219159 C13.6446963,0.754808411 13.8951168,0.505462617 14.2014252,0.505462617 L16.750771,0.505462617 C17.0581542,0.505462617 17.3064252,0.754808411 17.3064252,1.06219159 L17.3064252,12.9953224 C17.3064252,14.2130327 16.8313785,14.7461168 16.3649299,14.9492477 C15.9006308,15.1534533 14.4883879,15.0739206 13.6446963,14.3398551 C12.8020794,13.6057897 4.51348131,6.38980841 4.51348131,6.38980841 C4.51348131,6.38980841 4.02446262,5.9620514 3.99007009,5.93518224 C3.9546028,5.90831308 3.91161215,5.89219159 3.86432243,5.89219159 C3.75254673,5.89219159 3.66119159,5.98247196 3.66119159,6.09532243 L3.66119159,14.3860701 C3.66119159,14.6934533 3.41292056,14.9427991 3.10446262,14.9427991 L0.556191589,14.9427991 C0.248808411,14.9427991 0.000537383178,14.6934533 0.000537383178,14.3860701 L0.000537383178,2.46046262 C0.000537383178,1.24275234 0.475584112,0.710742991 0.940957944,0.506537383 C1.40633178,0.302331776 2.81857477,0.381864486 3.66119159,1.11592991 C4.50488318,1.84999533 12.7934813,9.06597664 12.7934813,9.06597664 C12.7934813,9.06597664 13.218014,9.43999533 13.2459579,9.46364019" id="Fill-15" fill="#4D5969" mask="url(#mask-6)"></path>
                    </g>
                    <g id="Group-20" transform="translate(69.859813, 0.665280)">
                        <mask id="mask-8" fill="white">
                            <use xlink:href="#path-7"></use>
                        </mask>
                        <g id="Clip-19"></g>
                        <path d="M14.1539206,9.46364019 C14.1990607,9.50233178 14.2538738,9.53242523 14.3183598,9.53242523 C14.4473318,9.53242523 14.5515841,9.42924766 14.5515841,9.3002757 L14.5515841,1.06219159 C14.5515841,0.754808411 14.8020047,0.505462617 15.1093879,0.505462617 L17.6576589,0.505462617 C17.9650421,0.505462617 18.2133131,0.754808411 18.2133131,1.06219159 L18.2133131,12.9953224 C18.2133131,14.2130327 17.7382664,14.7461168 17.2728925,14.9492477 C16.8075187,15.1534533 15.3952757,15.0739206 14.5515841,14.3398551 C13.7089673,13.6057897 5.42036916,6.38980841 5.42036916,6.38980841 C5.42036916,6.38980841 4.93135047,5.9620514 4.89695794,5.93518224 C4.86149065,5.90831308 4.8185,5.89219159 4.77228505,5.89219159 C4.65943458,5.89219159 4.56807944,5.98247196 4.56807944,6.09532243 L4.56807944,14.3860701 C4.56807944,14.6934533 4.31980841,14.9427991 4.01135047,14.9427991 L1.46307944,14.9427991 C1.15569626,14.9427991 0.907425234,14.6934533 0.907425234,14.3860701 L0.907425234,2.46046262 C0.907425234,1.24275234 1.38247196,0.710742991 1.84784579,0.506537383 C2.31321963,0.302331776 3.72546262,0.381864486 4.56807944,1.11592991 C5.41177103,1.84999533 13.7003692,9.06597664 13.7003692,9.06597664 C13.7003692,9.06597664 14.1249019,9.43999533 14.1539206,9.46364019" id="Fill-18" fill="#4D5969" mask="url(#mask-8)"></path>
                    </g>
                    <path d="M60.5777009,8.66111215 L56.8482617,8.66111215 C56.736486,8.66111215 56.6462056,8.57083178 56.6462056,8.45798131 C56.6462056,8.40209346 56.6677009,8.35157944 56.704243,8.31503738 L58.5399439,5.66466355 C58.5496168,5.64854206 58.5668131,5.63779439 58.5818598,5.6248972 C58.5915327,5.61414953 58.6012056,5.60125234 58.6151776,5.59372897 C58.6388224,5.57975701 58.6678411,5.57438318 58.6968598,5.57115888 C58.7033084,5.57115888 58.7076075,5.56793458 58.7140561,5.56793458 C58.7194299,5.56793458 58.723729,5.57115888 58.7291028,5.57115888 C58.7591963,5.57438318 58.788215,5.57975701 58.8118598,5.59372897 C58.8258318,5.60125234 58.8344299,5.61414953 58.8462523,5.6248972 C58.8602243,5.63779439 58.8774206,5.64854206 58.8870935,5.66466355 L60.7217196,8.31503738 C60.7582617,8.35157944 60.7808318,8.40209346 60.7808318,8.45798131 C60.7808318,8.57083178 60.6894766,8.66111215 60.5777009,8.66111215 M69.501486,15.0516729 L60.4841963,2.02872897 L60.4841963,2.02765421 C60.0972804,1.4655514 59.4481215,1.09583178 58.7140561,1.09583178 C57.9789159,1.09583178 57.3308318,1.4655514 56.9417664,2.02765421 L56.9428411,2.02872897 L47.9266262,15.0516729 C47.8761121,15.110785 47.8460187,15.1870935 47.8460187,15.2698505 C47.8460187,15.4568598 47.9975607,15.6073271 48.1834953,15.6073271 L51.4808785,15.6073271 C51.6055514,15.6073271 51.7151776,15.5396168 51.7742897,15.4385888 L54.1065327,12.065972 C54.1613458,11.9531215 54.2774206,11.8746636 54.4117664,11.8746636 L63.015271,11.8746636 C63.1496168,11.8746636 63.2656916,11.9531215 63.3205047,12.065972 L65.6538224,15.4385888 C65.710785,15.5396168 65.8204112,15.6073271 65.9461589,15.6073271 L69.2435421,15.6073271 C69.4294766,15.6073271 69.5810187,15.4568598 69.5810187,15.2698505 C69.5810187,15.1870935 69.5509252,15.110785 69.501486,15.0516729" id="Fill-21" fill="#4D5969"></path>
                </g>
                <g id="Group-Copy" transform="translate(0.000000, 37.000000)">
                    <g id="Group-3" transform="translate(213.749875, 0.000000)">
                        <mask id="mask-10" fill="white">
                            <use xlink:href="#path-9"></use>
                        </mask>
                        <g id="Clip-2"></g>
                        <path d="M3.370875,24.757236 L20.822125,4.182696 C22.485875,2.222136 24.917125,1.093176 27.477125,1.093176 C34.953375,1.093176 38.990875,9.927036 34.132125,15.654996 L8.708375,45.626616 L3.370875,39.335436 C-0.190375,35.138376 -0.190375,28.954296 3.370875,24.757236" id="Fill-1" fill="#6666FF" mask="url(#mask-10)"></path>
                    </g>
                    <path d="M228.242625,11.644794 L229.351375,10.338174 C228.943875,10.750194 228.581375,11.191194 228.242625,11.644794" id="Fill-4" fill="#351CC2"></path>
                    <g id="Group-8" transform="translate(213.749875, 11.340000)">
                        <mask id="mask-12" fill="white">
                            <use xlink:href="#path-11"></use>
                        </mask>
                        <g id="Clip-7"></g>
                        <path d="M34.132625,37.098306 L15.193875,14.771106 L15.193875,14.772366 L14.228875,13.634586 L14.228875,13.634586 L14.228875,13.634586 C11.290125,9.698346 11.528875,4.282866 14.492625,0.305046 L7.296375,8.788626 L3.371375,13.417866 C-0.189875,17.614926 -0.189875,23.799006 3.371375,27.996066 L20.822625,48.569346 C22.486375,50.531166 24.917625,51.660126 27.477625,51.660126 C34.952625,51.660126 38.991375,42.825006 34.132625,37.098306" id="Fill-6" fill="#3333CC" mask="url(#mask-12)"></path>
                    </g>
                    <path d="M8.14625,62.999622 L8.14625,62.999622 C3.64625,62.999622 5.24025268e-14,59.324202 5.24025268e-14,54.788202 L5.24025268e-14,11.487042 C5.24025268e-14,5.746482 4.61625,1.093302 10.31,1.093302 L16.2925,1.093302 L16.2925,54.788202 C16.2925,59.324202 12.645,62.999622 8.14625,62.999622" id="Fill-9" fill="#3333CC"></path>
                    <path d="M10.359375,1.092924 C4.638125,1.092924 0.000625,5.768784 0.000625,11.535804 L0.000625,17.515764 L0.000625,28.732284 C0.000625,22.538124 4.981875,17.515764 11.126875,17.515764 L41.809375,17.515764 C46.309375,17.515764 49.955625,13.839084 49.955625,9.304344 C49.955625,4.769604 46.309375,1.092924 41.809375,1.092924 L10.359375,1.092924 Z" id="Fill-11" fill="#6666FF"></path>
                    <path d="M67.598125,1.092924 L67.598125,1.092924 C63.099375,1.092924 59.451875,4.769604 59.451875,9.304344 L59.451875,46.577664 L75.744375,46.577664 L75.744375,9.304344 C75.744375,4.769604 72.098125,1.092924 67.598125,1.092924" id="Fill-13" fill="#3333CC"></path>
                    <path d="M98.69425,46.57716 L70.5805,46.57716 C64.43425,46.57716 59.45175,41.55606 59.45175,35.36064 L59.45175,46.57716 L59.45175,52.0002 C59.45175,58.07466 64.338,63 70.3655,63 L99.0355,63 C103.618,63 107.31675,59.18598 107.178,54.53532 C107.0455,50.04216 103.15425,46.57716 98.69425,46.57716" id="Fill-15" fill="#6666FF"></path>
                    <path d="M124.246,1.092924 L124.246,1.092924 C119.74725,1.092924 116.09975,4.769604 116.09975,9.304344 L116.09975,46.577664 L132.3935,46.577664 L132.3935,9.304344 C132.3935,4.769604 128.746,1.092924 124.246,1.092924" id="Fill-17" fill="#3333CC"></path>
                    <path d="M167.375875,1.092924 L167.374625,1.092924 C162.875875,1.092924 159.228375,4.769604 159.228375,9.304344 L159.228375,46.577664 L175.522125,46.577664 L175.522125,9.304344 C175.522125,4.769604 171.874625,1.092924 167.375875,1.092924" id="Fill-19" fill="#3333CC"></path>
                    <path d="M220.182375,39.335814 L202.729875,59.910354 C201.066125,61.870914 198.634875,62.999874 196.074875,62.999874 C188.598625,62.999874 184.562375,54.166014 189.421125,48.438054 L214.844875,18.465174 L220.182375,24.757614 C223.742375,28.954674 223.742375,35.138754 220.182375,39.335814" id="Fill-21" fill="#3333CC"></path>
                    <path d="M164.39375,46.57716 L127.22875,46.57716 C121.0825,46.57716 116.1,41.55606 116.1,35.36064 L116.1,46.57716 C116.1,55.6479 123.395,63 132.3925,63 L159.22875,63 C168.22625,63 175.52125,55.6479 175.52125,46.57716 L175.52125,35.36064 C175.52125,41.55606 170.54,46.57716 164.39375,46.57716" id="Fill-23" fill="#6666FF"></path>
                    <path d="M220.182375,24.757236 L202.729875,4.182696 C201.066125,2.222136 198.634875,1.093176 196.074875,1.093176 C188.598625,1.093176 184.562375,9.927036 189.421125,15.654996 L209.322375,39.118716 C212.262375,43.053696 212.023625,48.470436 209.059875,52.448256 L214.844875,45.626616 L220.182375,39.335436 C223.742375,35.138376 223.742375,28.954296 220.182375,24.757236" id="Fill-25" fill="#6666FF"></path>
                    <path d="M209.05925,52.447752 L207.9505,53.755632 C208.358,53.342352 208.7205,52.901352 209.05925,52.447752" id="Fill-27" fill="#6666FF"></path>
                    <path d="M11.127125,26.55009 C4.982125,26.55009 0.000875,31.57119 0.000875,37.76661 L0.000875,42.97293 L0.000875,54.18945 C0.000875,47.99529 4.982125,42.97293 11.127125,42.97293 L32.907125,42.97293 C37.405875,42.97293 41.053375,39.29625 41.053375,34.76151 C41.053375,30.22551 37.405875,26.55009 32.907125,26.55009 L11.127125,26.55009 Z" id="Fill-29" fill="#6666FF"></path>
                    <path d="M11.127125,26.55009 C4.982125,26.55009 0.000875,31.57119 0.000875,37.76661 L0.000875,42.97293 L0.000875,54.18945 C0.000875,47.99529 4.982125,42.97293 11.127125,42.97293 L32.907125,42.97293 C37.405875,42.97293 41.053375,39.29625 41.053375,34.76151 C41.053375,30.22551 37.405875,26.55009 32.907125,26.55009 L11.127125,26.55009 Z" id="Fill-31" fill="#6666FF"></path>
                </g>
            </g>
        </g>
    </g>
</svg>