<?xml version="1.0" encoding="UTF-8"?>
<svg width="31px" height="30px" viewBox="0 0 31 30" version="1.1" xmlns="http://www.w3.org/2000/svg" xmlns:xlink="http://www.w3.org/1999/xlink">
    <!-- Generator: Sketch 61 (89581) - https://sketch.com -->
    <title>instagram</title>
    <desc>Created with Sketch.</desc>
    <g id="Page-1" stroke="none" stroke-width="1" fill="none" fill-rule="evenodd">
        <g id="v" transform="translate(-132.000000, -5246.000000)" fill="#6666FF" fill-rule="nonzero">
            <g id="instagram" transform="translate(132.000000, 5246.000000)">
                <path d="M15.1885728,7.30837889 C10.8794695,7.30837889 7.40373056,10.7424969 7.40373056,15 C7.40373056,19.2575031 10.8794695,22.6916211 15.1885728,22.6916211 C19.4976761,22.6916211 22.9734151,19.2575031 22.9734151,15 C22.9734151,10.7424969 19.4976761,7.30837889 15.1885728,7.30837889 Z M15.1885728,20.0005578 C12.4039165,20.0005578 10.1274091,17.7580051 10.1274091,15 C10.1274091,12.2419949 12.3971411,9.99944215 15.1885728,9.99944215 C17.9800045,9.99944215 20.2497366,12.2419949 20.2497366,15 C20.2497366,17.7580051 17.9732292,20.0005578 15.1885728,20.0005578 L15.1885728,20.0005578 Z M25.1076408,6.99375209 C25.1076408,7.99118599 24.2946025,8.78779427 23.2918552,8.78779427 C22.2823325,8.78779427 21.4760695,7.9844918 21.4760695,6.99375209 C21.4760695,6.00301238 22.2891078,5.19970992 23.2918552,5.19970992 C24.2946025,5.19970992 25.1076408,6.00301238 25.1076408,6.99375209 Z M30.2636591,8.81457101 C30.1484787,6.4113578 29.5929024,4.28260627 27.8109934,2.52872922 C26.0358596,0.77485217 23.881308,0.225928818 21.4489682,0.105433449 C18.9420999,-0.0351444829 11.4282704,-0.0351444829 8.92140216,0.105433449 C6.49583772,0.219234631 4.34128607,0.768157983 2.559377,2.52203503 C0.777467931,4.27591208 0.228667038,6.40466362 0.106711285,8.80787683 C-0.0355704282,11.2847261 -0.0355704282,18.7085797 0.106711285,21.185429 C0.221891719,23.5886422 0.777467931,25.7173937 2.559377,27.4712708 C4.34128607,29.2251478 6.4890624,29.7740712 8.92140216,29.8945666 C11.4282704,30.0351445 18.9420999,30.0351445 21.4489682,29.8945666 C23.881308,29.7807654 26.0358596,29.231842 27.8109934,27.4712708 C29.5861271,25.7173937 30.1417033,23.5886422 30.2636591,21.185429 C30.4059408,18.7085797 30.4059408,11.2914203 30.2636591,8.81457101 Z M27.0250563,23.8430213 C26.4965814,25.155082 25.4735081,26.1659043 24.1387701,26.6947451 C22.1400508,27.477965 17.3973271,27.2972219 15.1885728,27.2972219 C12.9798186,27.2972219 8.23031956,27.4712708 6.23837558,26.6947451 C4.91041292,26.1725985 3.88733965,25.1617762 3.3520894,23.8430213 C2.559377,21.8682361 2.74231063,17.182305 2.74231063,15 C2.74231063,12.817695 2.56615232,8.12506973 3.3520894,6.15697869 C3.88056433,4.844918 4.9036376,3.83409573 6.23837558,3.30525494 C8.23709488,2.52203503 12.9798186,2.70277809 15.1885728,2.70277809 C17.3973271,2.70277809 22.1468261,2.52872922 24.1387701,3.30525494 C25.4667328,3.82740154 26.489806,4.83822381 27.0250563,6.15697869 C27.8177687,8.13176392 27.6348351,12.817695 27.6348351,15 C27.6348351,17.182305 27.8177687,21.8749303 27.0250563,23.8430213 Z" id="Shape"></path>
            </g>
        </g>
    </g>
</svg>