<?xml version="1.0" encoding="UTF-8"?>
<svg width="99px" height="133px" viewBox="0 0 99 133" version="1.1" xmlns="http://www.w3.org/2000/svg" xmlns:xlink="http://www.w3.org/1999/xlink">
    <!-- Generator: Sketch 61 (89581) - https://sketch.com -->
    <title>Group 4 Copy</title>
    <desc>Created with Sketch.</desc>
    <defs>
        <polygon id="path-1" points="0.000981818182 0 98.1818182 0 98.1818182 98.1818182 0.000981818182 98.1818182"></polygon>
        <polygon id="path-3" points="90.0725462 7.22190058 97.6778922 7.22190058 97.6778922 12.368114 90.0725462 12.368114"></polygon>
    </defs>
    <g id="Page-1" stroke="none" stroke-width="1" fill="none" fill-rule="evenodd">
        <g id="Open-Sans" transform="translate(-126.000000, -5409.000000)">
            <g id="Group-4-Copy" transform="translate(126.000000, 5409.000000)">
                <g id="Group-16-Copy">
                    <path d="M33.7293818,20.2632545 C27.7157455,20.2632545 22.8385636,25.1379818 22.8385636,31.1516182 L22.8385636,37.3861636 L22.8385636,49.0796182 C22.8385636,42.6217091 28.0765636,37.3861636 34.5344727,37.3861636 L66.7798364,37.3861636 C71.5097455,37.3861636 75.3412909,33.5546182 75.3412909,28.8247091 C75.3412909,24.0972545 71.5097455,20.2632545 66.7798364,20.2632545 L33.7293818,20.2632545 Z" id="Fill-1" fill="#6666FF"></path>
                    <path d="M34.5347182,49.1017091 C28.0768091,49.1017091 22.8388091,54.3372545 22.8388091,60.7951636 L22.8388091,66.2246182 L22.8388091,77.9180727 C22.8388091,71.4601636 28.0768091,66.2246182 34.5347182,66.2246182 L57.4233545,66.2246182 C62.1532636,66.2246182 65.9848091,62.3906182 65.9848091,57.6631636 C65.9848091,52.9357091 62.1532636,49.1017091 57.4233545,49.1017091 L34.5347182,49.1017091 Z" id="Fill-3" fill="#6666FF"></path>
                    <path d="M34.5347182,49.1017091 C28.0768091,49.1017091 22.8388091,54.3372545 22.8388091,60.7951636 L22.8388091,66.2246182 L22.8388091,77.9180727 C22.8388091,71.4601636 28.0768091,66.2246182 34.5347182,66.2246182 L57.4233545,66.2246182 C62.1532636,66.2246182 65.9848091,62.3906182 65.9848091,57.6631636 C65.9848091,52.9357091 62.1532636,49.1017091 57.4233545,49.1017091 L34.5347182,49.1017091 Z" id="Fill-5" fill="#6666FF"></path>
                    <g id="Group-9">
                        <mask id="mask-2" fill="white">
                            <use xlink:href="#path-1"></use>
                        </mask>
                        <g id="Clip-8"></g>
                        <g id="Group" mask="url(#mask-2)">
                            <g transform="translate(0.000982, 0.000000)">
                                <path d="M88.3636364,98.1818182 L9.81818182,98.1818182 C4.39363636,98.1818182 -9.87654403e-13,93.7857273 -9.87654403e-13,88.3636364 L-9.87654403e-13,9.81818182 C-9.87654403e-13,4.39609091 4.39363636,-7.81597009e-14 9.81818182,-7.81597009e-14 L88.3636364,-7.81597009e-14 C93.7857273,-7.81597009e-14 98.1818182,4.39609091 98.1818182,9.81818182 L98.1818182,88.3636364 C98.1818182,93.7857273 93.7857273,98.1818182 88.3636364,98.1818182" id="Fill-7" fill="#6666FF"></path>
                                <path d="M33.7284,20.2632545 C27.7147636,20.2632545 22.8375818,25.1379818 22.8375818,31.1516182 L22.8375818,37.3861636 L22.8375818,49.0796182 C22.8375818,42.6217091 28.0755818,37.3861636 34.5334909,37.3861636 L66.7788545,37.3861636 C71.5087636,37.3861636 75.3403091,33.5546182 75.3403091,28.8247091 C75.3403091,24.0972545 71.5087636,20.2632545 66.7788545,20.2632545 L33.7284,20.2632545 Z" id="Fill-10" fill="#FFFFFF"></path>
                                <path d="M34.5337364,49.1017091 C28.0758273,49.1017091 22.8378273,54.3372545 22.8378273,60.7951636 L22.8378273,66.2246182 L22.8378273,77.9180727 C22.8378273,71.4601636 28.0758273,66.2246182 34.5337364,66.2246182 L57.4223727,66.2246182 C62.1522818,66.2246182 65.9838273,62.3906182 65.9838273,57.6631636 C65.9838273,52.9357091 62.1522818,49.1017091 57.4223727,49.1017091 L34.5337364,49.1017091 Z" id="Fill-14" fill="#FFFFFF"></path>
                            </g>
                        </g>
                    </g>
                    <path d="M34.5347182,49.1017091 C28.0768091,49.1017091 22.8388091,54.3372545 22.8388091,60.7951636 L22.8388091,66.2246182 L22.8388091,77.9180727 C22.8388091,71.4601636 28.0768091,66.2246182 34.5347182,66.2246182 L57.4233545,66.2246182 C62.1532636,66.2246182 65.9848091,62.3906182 65.9848091,57.6631636 C65.9848091,52.9357091 62.1532636,49.1017091 57.4233545,49.1017091 L34.5347182,49.1017091 Z" id="Fill-12" fill="#FFFFFF"></path>
                </g>
                <g id="Group-2" transform="translate(0.000000, 120.000000)">
                    <path d="M78.8023755,0.0822384446 L76.2493927,0.0822384446 C76.0938903,0.0822384446 75.967659,0.207555052 75.967659,0.363057411 L75.967659,12.0879353 C75.967659,12.2425229 76.0938903,12.3687543 76.2493927,12.3687543 L78.8023755,12.3687543 C78.9578779,12.3687543 79.0850239,12.2425229 79.0850239,12.0879353 L79.0850239,0.363057411 C79.0850239,0.207555052 78.9578779,0.0822384446 78.8023755,0.0822384446" id="Fill-1" fill="#F2F4F6"></path>
                    <path d="M27.775557,0.0826958044 C27.5139471,0.0826958044 27.3017321,0.294910789 27.3017321,0.55652064 L27.3017321,8.52372975 C27.3017321,9.36344249 26.1290614,9.63328482 24.6902072,9.63328482 L23.0766416,9.63328482 L21.4639906,9.63328482 C20.0251365,9.63328482 18.8524657,9.36344249 18.8524657,8.52372975 L18.8524657,0.55652064 C18.8524657,0.294910789 18.6402507,0.0826958044 18.3786409,0.0826958044 L16.2080109,0.0826958044 C15.946401,0.0826958044 15.7351008,0.294910789 15.7351008,0.55652064 C15.7351008,0.55652064 15.7360155,7.30074943 15.7360155,8.70758842 C15.7360155,10.1144274 16.347963,11.0026203 17.5124013,11.7014662 C18.678669,12.4003121 21.3917278,12.3692116 22.1966812,12.3692116 L23.0766416,12.3692116 L23.956602,12.3692116 C24.7615554,12.3692116 27.4764436,12.4003121 28.6408819,11.7014662 C29.8062348,11.0026203 30.4181824,10.1144274 30.4181824,8.70758842 C30.4181824,7.30074943 30.4200118,0.55652064 30.4200118,0.55652064 C30.4200118,0.294910789 30.2068821,0.0826958044 29.946187,0.0826958044 L27.775557,0.0826958044 Z" id="Fill-3" fill="#F2F4F6"></path>
                    <path d="M93.6317208,0.165294999 C93.6838598,0.114070692 93.7542932,0.0829702204 93.8329591,0.0829702204 L97.3903043,0.0829702204 C97.5494655,0.0829702204 97.678441,0.211030987 97.678441,0.370192225 C97.678441,0.46349364 97.6336197,0.546733139 97.5650158,0.598872165 L92.3419659,5.14594409 C92.2898269,5.1971684 92.217564,5.23009831 92.1388981,5.23009831 C92.0538292,5.23009831 91.9779075,5.19350952 91.9257684,5.13588217 L90.1466385,3.58726162 C90.1009025,3.53603731 90.0725462,3.46834805 90.0725462,3.39425575 C90.0725462,3.30552793 90.1118792,3.22686203 90.1749948,3.17380829 L93.6317208,0.165294999 Z" id="Fill-5" fill="#F2F4F6"></path>
                    <mask id="mask-4" fill="white">
                        <use xlink:href="#path-3"></use>
                    </mask>
                    <g id="Clip-9"></g>
                    <path d="M93.6317208,12.2857892 C93.6838598,12.3370135 93.7542932,12.368114 93.8329591,12.368114 L97.3903043,12.368114 C97.5494655,12.368114 97.678441,12.2400532 97.678441,12.0808919 C97.678441,11.9875905 97.6336197,11.904351 97.5650158,11.852212 L92.3419659,7.30514008 C92.2898269,7.25391578 92.217564,7.22190058 92.1388981,7.22190058 C92.0538292,7.22190058 91.9779075,7.25757466 91.9257684,7.315202 L90.1466385,8.86382255 C90.1009025,8.91504686 90.0725462,8.98273612 90.0725462,9.05682842 C90.0725462,9.14555624 90.1118792,9.22422214 90.1749948,9.27727588 L93.6317208,12.2857892 Z" id="Fill-8" fill="#F2F4F6"></path>
                    <path d="M84.1343685,12.292924 C84.0822294,12.3395747 84.0145402,12.3688457 83.9395332,12.3688457 L80.3776144,12.3688457 C80.2193679,12.3688457 80.0903924,12.2398702 80.0903924,12.0816237 C80.0903924,12.0020431 80.1224076,11.9297802 80.1745466,11.8776412 L86.4165943,6.44512056 C86.4787952,6.39298154 86.5190429,6.31340092 86.5190429,6.22558782 C86.5190429,6.1414336 86.4833688,6.06642658 86.4266562,6.01428756 L80.1919263,0.589084663 C80.1297254,0.536945637 80.0903924,0.458279738 80.0903924,0.370466641 C80.0903924,0.211305403 80.2193679,0.0823299165 80.3776144,0.0823299165 L83.9395332,0.0823299165 C84.0145402,0.0823299165 84.0831442,0.111600949 84.1343685,0.158251657 L90.8557293,6.00788452 C90.9161008,6.06093827 90.954519,6.13868945 90.954519,6.22558782 C90.954519,6.3124862 90.915186,6.39023738 90.8548145,6.44329113 L84.1343685,12.292924 Z" id="Fill-11" fill="#F2F4F6"></path>
                    <path d="M39.7196017,3.10465547 C39.7196017,2.94640896 39.8485772,2.81834819 40.0068237,2.81834819 L44.4267496,2.81834819 C44.6874447,2.81834819 44.8996597,2.60613321 44.8996597,2.34360863 L44.8996597,0.556246224 C44.8996597,0.294636373 44.6874447,0.0824213885 44.4267496,0.0824213885 L31.8969183,0.0824213885 C31.6353085,0.0824213885 31.4240082,0.294636373 31.4240082,0.556246224 L31.4240082,2.34360863 C31.4240082,2.60613321 31.6353085,2.81834819 31.8969183,2.81834819 L36.3159295,2.81834819 C36.474176,2.81834819 36.6031515,2.94640896 36.6031515,3.10465547 L36.6031515,11.8951124 C36.6031515,12.1567222 36.8153665,12.3680225 37.0760616,12.3680225 L39.2393738,12.3680225 C39.5009837,12.3680225 39.712284,12.1567222 39.712284,11.8951124 L39.7196017,3.10465547 Z" id="Fill-13" fill="#F2F4F6"></path>
                    <path d="M71.502546,7.70597028 C71.5409642,7.73890019 71.5876149,7.76451235 71.6424981,7.76451235 C71.7522644,7.76451235 71.8409923,7.67578453 71.8409923,7.56693288 L71.8409923,0.55560592 C71.8409923,0.293996069 72.054122,0.0817810847 72.3157318,0.0817810847 L74.4845324,0.0817810847 C74.7461422,0.0817810847 74.9574425,0.293996069 74.9574425,0.55560592 L74.9574425,10.7117394 C74.9574425,11.7481169 74.5531363,12.2009032 74.1570627,12.3746999 C73.760989,12.5484967 72.5590473,12.4808074 71.8409923,11.8560538 C71.123852,11.2313002 64.0695332,5.08987177 64.0695332,5.08987177 C64.0695332,5.08987177 63.6533357,4.7258133 63.6240647,4.70294531 C63.5938789,4.68007732 63.5572901,4.66635652 63.5179572,4.66635652 C63.4219116,4.66635652 63.3441604,4.74319298 63.3441604,4.83923855 L63.3441604,11.8953868 C63.3441604,12.1569966 63.1328601,12.3682969 62.8703356,12.3682969 L60.701535,12.3682969 C60.4399252,12.3682969 60.2286249,12.1569966 60.2286249,11.8953868 L60.2286249,1.74565633 C60.2286249,0.70927884 60.632931,0.256492559 61.0290047,0.0826958044 C61.4250784,-0.0911009499 62.6270201,-0.0234116877 63.3441604,0.601341908 C64.0622154,1.2260955 71.1165342,7.36752397 71.1165342,7.36752397 C71.1165342,7.36752397 71.4778485,7.68584645 71.502546,7.70597028" id="Fill-18" fill="#F2F4F6"></path>
                    <path d="M11.2730063,7.70597028 C11.3123393,7.73890019 11.35899,7.76451235 11.4138732,7.76451235 C11.5236395,7.76451235 11.6123673,7.67578453 11.6123673,7.56693288 L11.6123673,0.55560592 C11.6123673,0.293996069 11.8254971,0.0817810847 12.0861922,0.0817810847 L14.2559075,0.0817810847 C14.5175173,0.0817810847 14.7288176,0.293996069 14.7288176,0.55560592 L14.7288176,10.7117394 C14.7288176,11.7481169 14.3245114,12.2009032 13.9275231,12.3746999 C13.5323641,12.5484967 12.3304224,12.4808074 11.6123673,11.8560538 C10.8952271,11.2313002 3.84090827,5.08987177 3.84090827,5.08987177 C3.84090827,5.08987177 3.42471078,4.7258133 3.39543975,4.70294531 C3.365254,4.68007732 3.32866521,4.66635652 3.28841754,4.66635652 C3.19328668,4.66635652 3.1155355,4.74319298 3.1155355,4.83923855 L3.1155355,11.8953868 C3.1155355,12.1569966 2.90423524,12.3682969 2.64171067,12.3682969 L0.472910116,12.3682969 C0.211300264,12.3682969 1.75859327e-13,12.1569966 1.75859327e-13,11.8953868 L1.75859327e-13,1.74565633 C1.75859327e-13,0.70927884 0.404306134,0.256492559 0.80037979,0.0826958044 C1.19645345,-0.0911009499 2.39839521,-0.0234116877 3.1155355,0.601341908 C3.83359051,1.2260955 10.8879093,7.36752397 10.8879093,7.36752397 C10.8879093,7.36752397 11.2492236,7.68584645 11.2730063,7.70597028" id="Fill-15" fill="#F2F4F6"></path>
                    <path d="M49.9703172,0.0184824773 C50.5950708,0.0184824773 51.1475616,0.332231355 51.4768607,0.811544509 L51.4768607,0.811544509 L59.1513595,11.8961186 C59.1934366,11.9455134 59.2190487,12.0104585 59.2190487,12.0808919 C59.2190487,12.2400532 59.0900732,12.3690287 58.9318267,12.3690287 L58.9318267,12.3690287 L56.1254665,12.3690287 C56.0184443,12.3690287 55.9251429,12.3104866 55.8766627,12.224503 L55.8766627,12.224503 L53.8908061,9.35502706 C53.8441554,9.25806677 53.7453657,9.19129223 53.6310257,9.19129223 L53.6310257,9.19129223 L46.308694,9.19129223 C46.1943541,9.19129223 46.0955643,9.25806677 46.0489136,9.35502706 L46.0489136,9.35502706 L44.0639717,12.224503 C44.0136621,12.3104866 43.9203607,12.3690287 43.8142532,12.3690287 L43.8142532,12.3690287 L41.007893,12.3690287 C40.8496465,12.3690287 40.720671,12.2400532 40.720671,12.0808919 C40.720671,12.0104585 40.7462832,11.9455134 40.789275,11.8961186 L40.789275,11.8961186 L48.4628591,0.811544509 C48.7930729,0.332231355 49.3446489,0.0184824773 49.9703172,0.0184824773 Z M49.9703172,3.82371668 C49.9648289,3.82371668 49.96117,3.82646084 49.9556817,3.82737556 C49.9309843,3.829205 49.9062868,3.83469331 49.886163,3.84566995 C49.8742716,3.85207299 49.8660392,3.86396435 49.8578067,3.87219682 C49.8450006,3.88317346 49.8303651,3.89232066 49.8221326,3.90695618 L49.8221326,3.90695618 L48.2597913,6.16174038 C48.2286908,6.19284086 48.2103964,6.23583268 48.2103964,6.28431283 C48.2103964,6.37944369 48.2872329,6.45628015 48.3823637,6.45628015 L48.3823637,6.45628015 L51.5564413,6.45628015 C51.6515721,6.45628015 51.7293233,6.37944369 51.7293233,6.28431283 C51.7293233,6.23583268 51.7101142,6.19284086 51.6790137,6.16174038 L51.6790137,6.16174038 L50.1175871,3.90695618 C50.1093546,3.89232066 50.0947191,3.88317346 50.0828278,3.87219682 C50.0727658,3.86396435 50.0654481,3.85207299 50.0535567,3.84566995 C50.0334329,3.83469331 50.0087355,3.829205 49.9831233,3.82737556 C49.9785497,3.82646084 49.9748908,3.82371668 49.9703172,3.82371668 Z" id="Combined-Shape" fill="#F2F4F6"></path>
                </g>
            </g>
        </g>
    </g>
</svg>