<?xml version="1.0" encoding="UTF-8"?>
<svg width="30px" height="30px" viewBox="0 0 30 30" version="1.1" xmlns="http://www.w3.org/2000/svg" xmlns:xlink="http://www.w3.org/1999/xlink">
    <!-- Generator: Sketch 61 (89581) - https://sketch.com -->
    <title>Group 16 Copy</title>
    <desc>Created with Sketch.</desc>
    <defs>
        <polygon id="path-1" points="0.000294545455 0 29.4545455 0 29.4545455 29.4545455 0.000294545455 29.4545455"></polygon>
    </defs>
    <g id="Page-1" stroke="none" stroke-width="1" fill="none" fill-rule="evenodd">
        <g id="Open-Sans" transform="translate(-60.000000, -25.000000)">
            <g id="Group-16-Copy" transform="translate(60.000000, 25.000000)">
                <path d="M10.1188145,6.07897636 C8.31472364,6.07897636 6.85156909,7.54139455 6.85156909,9.34548545 L6.85156909,11.2158491 L6.85156909,14.7238855 C6.85156909,12.7865127 8.42296909,11.2158491 10.3603418,11.2158491 L20.0339509,11.2158491 C21.4529236,11.2158491 22.6023873,10.0663855 22.6023873,8.64741273 C22.6023873,7.22917636 21.4529236,6.07897636 20.0339509,6.07897636 L10.1188145,6.07897636 Z" id="Fill-1" fill="#6666FF"></path>
                <path d="M10.3604155,14.7305127 C8.42304273,14.7305127 6.85164273,16.3011764 6.85164273,18.2385491 L6.85164273,19.8673855 L6.85164273,23.3754218 C6.85164273,21.4380491 8.42304273,19.8673855 10.3604155,19.8673855 L17.2270064,19.8673855 C18.6459791,19.8673855 19.7954427,18.7171855 19.7954427,17.2989491 C19.7954427,15.8807127 18.6459791,14.7305127 17.2270064,14.7305127 L10.3604155,14.7305127 Z" id="Fill-3" fill="#6666FF"></path>
                <path d="M10.3604155,14.7305127 C8.42304273,14.7305127 6.85164273,16.3011764 6.85164273,18.2385491 L6.85164273,19.8673855 L6.85164273,23.3754218 C6.85164273,21.4380491 8.42304273,19.8673855 10.3604155,19.8673855 L17.2270064,19.8673855 C18.6459791,19.8673855 19.7954427,18.7171855 19.7954427,17.2989491 C19.7954427,15.8807127 18.6459791,14.7305127 17.2270064,14.7305127 L10.3604155,14.7305127 Z" id="Fill-5" fill="#6666FF"></path>
                <g id="Group-9">
                    <mask id="mask-2" fill="white">
                        <use xlink:href="#path-1"></use>
                    </mask>
                    <g id="Clip-8"></g>
                    <path d="M26.5093855,29.4545455 L2.94574909,29.4545455 C1.31838545,29.4545455 0.000294545455,28.1357182 0.000294545455,26.5090909 L0.000294545455,2.94545455 C0.000294545455,1.31882727 1.31838545,0 2.94574909,0 L26.5093855,0 C28.1360127,0 29.45484,1.31882727 29.45484,2.94545455 L29.45484,26.5090909 C29.45484,28.1357182 28.1360127,29.4545455 26.5093855,29.4545455" id="Fill-7" fill="#6666FF" mask="url(#mask-2)"></path>
                </g>
                <path d="M10.1188145,6.07897636 C8.31472364,6.07897636 6.85156909,7.54139455 6.85156909,9.34548545 L6.85156909,11.2158491 L6.85156909,14.7238855 C6.85156909,12.7865127 8.42296909,11.2158491 10.3603418,11.2158491 L20.0339509,11.2158491 C21.4529236,11.2158491 22.6023873,10.0663855 22.6023873,8.64741273 C22.6023873,7.22917636 21.4529236,6.07897636 20.0339509,6.07897636 L10.1188145,6.07897636 Z" id="Fill-10" fill="#FFFFFF"></path>
                <path d="M10.3604155,14.7305127 C8.42304273,14.7305127 6.85164273,16.3011764 6.85164273,18.2385491 L6.85164273,19.8673855 L6.85164273,23.3754218 C6.85164273,21.4380491 8.42304273,19.8673855 10.3604155,19.8673855 L17.2270064,19.8673855 C18.6459791,19.8673855 19.7954427,18.7171855 19.7954427,17.2989491 C19.7954427,15.8807127 18.6459791,14.7305127 17.2270064,14.7305127 L10.3604155,14.7305127 Z" id="Fill-12" fill="#FFFFFF"></path>
                <path d="M10.3604155,14.7305127 C8.42304273,14.7305127 6.85164273,16.3011764 6.85164273,18.2385491 L6.85164273,19.8673855 L6.85164273,23.3754218 C6.85164273,21.4380491 8.42304273,19.8673855 10.3604155,19.8673855 L17.2270064,19.8673855 C18.6459791,19.8673855 19.7954427,18.7171855 19.7954427,17.2989491 C19.7954427,15.8807127 18.6459791,14.7305127 17.2270064,14.7305127 L10.3604155,14.7305127 Z" id="Fill-14" fill="#FFFFFF"></path>
            </g>
        </g>
    </g>
</svg>