<?xml version="1.0" encoding="UTF-8"?>
<svg width="99px" height="99px" viewBox="0 0 99 99" version="1.1" xmlns="http://www.w3.org/2000/svg" xmlns:xlink="http://www.w3.org/1999/xlink">
    <!-- Generator: Sketch 61 (89581) - https://sketch.com -->
    <title>Group 16 Copy</title>
    <desc>Created with Sketch.</desc>
    <defs>
        <polygon id="path-1" points="0.000981818182 0 98.1818182 0 98.1818182 98.1818182 0.000981818182 98.1818182"></polygon>
    </defs>
    <g id="Page-1" stroke="none" stroke-width="1" fill="none" fill-rule="evenodd">
        <g id="Open-Sans" transform="translate(-126.000000, -5409.000000)">
            <g id="Group-4-Copy" transform="translate(126.000000, 5409.000000)">
                <g id="Group-16-Copy">
                    <path d="M33.7293818,20.2632545 C27.7157455,20.2632545 22.8385636,25.1379818 22.8385636,31.1516182 L22.8385636,37.3861636 L22.8385636,49.0796182 C22.8385636,42.6217091 28.0765636,37.3861636 34.5344727,37.3861636 L66.7798364,37.3861636 C71.5097455,37.3861636 75.3412909,33.5546182 75.3412909,28.8247091 C75.3412909,24.0972545 71.5097455,20.2632545 66.7798364,20.2632545 L33.7293818,20.2632545 Z" id="Fill-1" fill="#6666FF"></path>
                    <path d="M34.5347182,49.1017091 C28.0768091,49.1017091 22.8388091,54.3372545 22.8388091,60.7951636 L22.8388091,66.2246182 L22.8388091,77.9180727 C22.8388091,71.4601636 28.0768091,66.2246182 34.5347182,66.2246182 L57.4233545,66.2246182 C62.1532636,66.2246182 65.9848091,62.3906182 65.9848091,57.6631636 C65.9848091,52.9357091 62.1532636,49.1017091 57.4233545,49.1017091 L34.5347182,49.1017091 Z" id="Fill-3" fill="#6666FF"></path>
                    <path d="M34.5347182,49.1017091 C28.0768091,49.1017091 22.8388091,54.3372545 22.8388091,60.7951636 L22.8388091,66.2246182 L22.8388091,77.9180727 C22.8388091,71.4601636 28.0768091,66.2246182 34.5347182,66.2246182 L57.4233545,66.2246182 C62.1532636,66.2246182 65.9848091,62.3906182 65.9848091,57.6631636 C65.9848091,52.9357091 62.1532636,49.1017091 57.4233545,49.1017091 L34.5347182,49.1017091 Z" id="Fill-5" fill="#6666FF"></path>
                    <g id="Group-9">
                        <mask id="mask-2" fill="white">
                            <use xlink:href="#path-1"></use>
                        </mask>
                        <g id="Clip-8"></g>
                        <g id="Group" mask="url(#mask-2)">
                            <g transform="translate(0.000982, 0.000000)">
                                <path d="M88.3636364,98.1818182 L9.81818182,98.1818182 C4.39363636,98.1818182 -9.87654403e-13,93.7857273 -9.87654403e-13,88.3636364 L-9.87654403e-13,9.81818182 C-9.87654403e-13,4.39609091 4.39363636,-7.81597009e-14 9.81818182,-7.81597009e-14 L88.3636364,-7.81597009e-14 C93.7857273,-7.81597009e-14 98.1818182,4.39609091 98.1818182,9.81818182 L98.1818182,88.3636364 C98.1818182,93.7857273 93.7857273,98.1818182 88.3636364,98.1818182" id="Fill-7" fill="#6666FF"></path>
                                <path d="M33.7284,20.2632545 C27.7147636,20.2632545 22.8375818,25.1379818 22.8375818,31.1516182 L22.8375818,37.3861636 L22.8375818,49.0796182 C22.8375818,42.6217091 28.0755818,37.3861636 34.5334909,37.3861636 L66.7788545,37.3861636 C71.5087636,37.3861636 75.3403091,33.5546182 75.3403091,28.8247091 C75.3403091,24.0972545 71.5087636,20.2632545 66.7788545,20.2632545 L33.7284,20.2632545 Z" id="Fill-10" fill="#FFFFFF"></path>
                                <path d="M34.5337364,49.1017091 C28.0758273,49.1017091 22.8378273,54.3372545 22.8378273,60.7951636 L22.8378273,66.2246182 L22.8378273,77.9180727 C22.8378273,71.4601636 28.0758273,66.2246182 34.5337364,66.2246182 L57.4223727,66.2246182 C62.1522818,66.2246182 65.9838273,62.3906182 65.9838273,57.6631636 C65.9838273,52.9357091 62.1522818,49.1017091 57.4223727,49.1017091 L34.5337364,49.1017091 Z" id="Fill-14" fill="#FFFFFF"></path>
                            </g>
                        </g>
                    </g>
                    <path d="M34.5347182,49.1017091 C28.0768091,49.1017091 22.8388091,54.3372545 22.8388091,60.7951636 L22.8388091,66.2246182 L22.8388091,77.9180727 C22.8388091,71.4601636 28.0768091,66.2246182 34.5347182,66.2246182 L57.4233545,66.2246182 C62.1532636,66.2246182 65.9848091,62.3906182 65.9848091,57.6631636 C65.9848091,52.9357091 62.1532636,49.1017091 57.4233545,49.1017091 L34.5347182,49.1017091 Z" id="Fill-12" fill="#FFFFFF"></path>
                </g>
            </g>
        </g>
    </g>
</svg>