<?xml version="1.0" encoding="UTF-8"?>
<svg width="40px" height="30px" viewBox="0 0 40 30" version="1.1" xmlns="http://www.w3.org/2000/svg" xmlns:xlink="http://www.w3.org/1999/xlink">
    <!-- Generator: Sketch 61 (89581) - https://sketch.com -->
    <title>mail</title>
    <desc>Created with Sketch.</desc>
    <g id="Page-1" stroke="none" stroke-width="1" fill="none" fill-rule="evenodd">
        <g id="v" transform="translate(-209.000000, -5306.000000)" fill="#6666FF" fill-rule="nonzero">
            <g id="mail" transform="translate(209.000000, 5306.000000)">
                <path d="M39.2421875,9.90625 C39.546875,9.6640625 40,9.890625 40,10.2734375 L40,26.25 C40,28.3203125 38.3203125,30 36.25,30 L3.75,30 C1.6796875,30 0,28.3203125 0,26.25 L0,10.28125 C0,9.890625 0.4453125,9.671875 0.7578125,9.9140625 C2.5078125,11.2734375 4.828125,13 12.796875,18.7890625 C14.4453125,19.9921875 17.2265625,22.5234375 20,22.5078125 C22.7890625,22.53125 25.625,19.9453125 27.2109375,18.7890625 C35.1796875,13 37.4921875,11.265625 39.2421875,9.90625 Z M20,20 C21.8125,20.03125 24.421875,17.71875 25.734375,16.765625 C36.1015625,9.2421875 36.890625,8.5859375 39.28125,6.7109375 C39.734375,6.359375 40,5.8125 40,5.234375 L40,3.75 C40,1.6796875 38.3203125,0 36.25,0 L3.75,0 C1.6796875,0 0,1.6796875 0,3.75 L0,5.234375 C0,5.8125 0.265625,6.3515625 0.71875,6.7109375 C3.109375,8.578125 3.8984375,9.2421875 14.265625,16.765625 C15.578125,17.71875 18.1875,20.03125 20,20 Z" id="Shape"></path>
            </g>
        </g>
    </g>
</svg>