<?xml version="1.0" encoding="UTF-8"?>
<svg width="36px" height="30px" viewBox="0 0 36 30" version="1.1" xmlns="http://www.w3.org/2000/svg" xmlns:xlink="http://www.w3.org/1999/xlink">
    <!-- Generator: Sketch 61 (89581) - https://sketch.com -->
    <title>Fill 15</title>
    <desc>Created with Sketch.</desc>
    <g id="Page-1" stroke="none" stroke-width="1" fill="none" fill-rule="evenodd">
        <g id="v" transform="translate(-292.000000, -5246.000000)" fill="#6666FF">
            <path d="M319.147744,5264.55758 C319.242466,5264.63688 319.35481,5264.69856 319.486981,5264.69856 C319.751321,5264.69856 319.964996,5264.48489 319.964996,5264.22275 L319.964996,5247.33801 C319.964996,5246.708 320.478257,5246.19695 321.106065,5246.19695 L326.33119,5246.19695 C326.961201,5246.19695 327.470056,5246.708 327.470056,5247.33801 L327.470056,5271.7961 C327.470056,5274.29191 326.496403,5275.38231 325.540372,5275.80085 C324.588747,5276.21939 321.694222,5276.05638 319.964996,5274.55184 C318.237973,5273.04731 301.249706,5258.25747 301.249706,5258.25747 C301.249706,5258.25747 300.247416,5257.38074 300.176925,5257.32567 C300.104232,5257.2706 300.016118,5257.23756 299.919193,5257.23756 C299.690099,5257.23756 299.502857,5257.4226 299.502857,5257.65389 L299.502857,5274.64657 C299.502857,5275.27658 298.994003,5275.78543 298.361789,5275.78543 L293.138866,5275.78543 C292.508855,5275.78543 292,5275.27658 292,5274.64657 L292,5250.2039 C292,5247.70809 292.973653,5246.61769 293.927481,5246.19915 C294.881309,5245.78061 297.775835,5245.94362 299.502857,5247.44816 C301.232083,5248.95269 318.22035,5263.74253 318.22035,5263.74253 C318.22035,5263.74253 319.09047,5264.50912 319.147744,5264.55758" id="Fill-15"></path>
        </g>
    </g>
</svg>