<?xml version="1.0" encoding="UTF-8"?>
<svg width="41px" height="30px" viewBox="0 0 41 30" version="1.1" xmlns="http://www.w3.org/2000/svg" xmlns:xlink="http://www.w3.org/1999/xlink">
    <!-- Generator: Sketch 61 (89581) - https://sketch.com -->
    <title>Symbol</title>
    <desc>Created with Sketch.</desc>
    <g id="Page-1" stroke="none" stroke-width="1" fill="none" fill-rule="evenodd">
        <g id="v" transform="translate(-295.000000, -5246.000000)" fill="#6666FF">
            <path d="M303.911672,5246.00004 C304.085689,5246.00004 304.244162,5246.07025 304.362426,5246.18537 L319.919839,5260.46968 C320.060741,5260.59798 320.149608,5260.78724 320.149608,5260.9993 C320.149608,5261.21173 320.060403,5261.40241 319.918825,5261.53143 L304.361074,5275.81538 C304.24281,5275.92943 304.085013,5276 303.911672,5276 L295.66498,5276 C295.297686,5276 295,5275.68529 295,5275.29751 C295,5275.10398 295.074337,5274.92862 295.194628,5274.8021 L309.645769,5261.53642 C309.790727,5261.40775 309.882634,5261.21493 309.882634,5260.9993 C309.882634,5260.79544 309.800188,5260.61224 309.669084,5260.48429 L295.235514,5247.2375 C295.091232,5247.10884 295,5246.91709 295,5246.70217 C295,5246.31475 295.297686,5246.00004 295.66498,5246.00004 L303.911672,5246.00004 Z M322.891466,5263.43196 C323.075281,5263.43196 323.241188,5263.51037 323.361817,5263.63654 L323.361817,5263.63654 L335.452416,5274.73915 C335.611565,5274.86746 335.714286,5275.06991 335.714286,5275.29765 C335.714286,5275.68507 335.416599,5275.99979 335.049306,5275.99979 L335.049306,5275.99979 L326.813088,5275.99979 C326.631638,5275.99979 326.466745,5275.9228 326.346792,5275.79806 L326.346792,5275.79806 L318.34575,5268.45204 C318.200116,5268.3223 318.108209,5268.12984 318.108209,5267.91385 C318.108209,5267.73244 318.17376,5267.56706 318.280873,5267.44232 L318.280873,5267.44232 L322.398813,5263.66149 C322.520456,5263.52071 322.696162,5263.43196 322.891466,5263.43196 Z M335.049306,5246 C335.416599,5246 335.714286,5246.31471 335.714286,5246.70213 C335.714286,5246.92988 335.611565,5247.13197 335.452416,5247.26028 L323.361817,5258.36289 C323.241188,5258.48941 323.075281,5258.56782 322.891466,5258.56782 C322.696162,5258.56782 322.520456,5258.47943 322.398813,5258.33829 L318.280873,5254.55747 C318.17376,5254.43272 318.108209,5254.26735 318.108209,5254.08593 C318.108209,5253.8703 318.200116,5253.67748 318.34575,5253.54811 L326.346792,5246.20137 C326.466745,5246.07699 326.631638,5246 326.813088,5246 L335.049306,5246 Z" id="Symbol"></path>
        </g>
    </g>
</svg>