<?xml version="1.0" encoding="UTF-8"?>
<svg width="37px" height="30px" viewBox="0 0 37 30" version="1.1" xmlns="http://www.w3.org/2000/svg" xmlns:xlink="http://www.w3.org/1999/xlink">
    <!-- Generator: Sketch 61 (89581) - https://sketch.com -->
    <title>Path</title>
    <desc>Created with Sketch.</desc>
    <g id="Page-1" stroke="none" stroke-width="1" fill="none" fill-rule="evenodd">
        <g id="v" transform="translate(-47.000000, -5246.000000)" fill="#6666FF" fill-rule="nonzero">
            <g id="twitter" transform="translate(47.000000, 5246.000000)">
                <path d="M33.1396691,7.47979992 C33.1627549,7.80300115 33.1627549,8.13774529 33.1627549,8.46094652 C33.1627549,18.4686418 25.5444402,30 11.6237014,30 C7.32974221,30 3.34744132,28.7533667 6.32383035e-13,26.6063871 C0.611773759,26.6756445 1.20046172,26.6987303 1.82377838,26.6987303 C5.36744902,26.6987303 8.62254713,25.4982686 11.2196999,23.466718 C7.89534436,23.3974606 5.10196229,21.2158523 4.1439015,18.214698 C5.30973451,18.3878415 6.36013851,18.3878415 7.56060023,18.0761831 C4.0977299,17.3720662 1.50057715,14.3247403 1.50057715,10.6425548 L1.50057715,10.5502116 C2.50480954,11.1158138 3.68218546,11.4621008 4.91727588,11.5082724 C2.80821257,10.1053906 1.54260183,7.73887192 1.54674875,5.2058484 C1.54674875,3.79761447 1.91612159,2.50480954 2.57406695,1.38514813 C6.30242401,5.97922278 11.9007311,8.98037707 18.1800693,9.3035783 C17.1065795,4.1669873 20.9503655,0 25.567526,0 C27.7491343,0 29.7114275,0.911889188 31.0965756,2.38938053 C32.804925,2.0661793 34.4440169,1.43131974 35.8984225,0.565602155 C35.3328203,2.32012312 34.1439015,3.79761447 32.5740669,4.73258946 C34.0977299,4.57098884 35.5752212,4.1439015 36.9372836,3.55521354 C35.9099654,5.06733359 34.6171604,6.40631012 33.1396691,7.47979992 L33.1396691,7.47979992 Z" id="Path"></path>
            </g>
        </g>
    </g>
</svg>